HIERARCHY
ROOT joint_Root
{
	OFFSET 0.0 0.0 0.0
	CHANNELS 6 Xposition Yposition Zposition Zrotation Xrotation Yrotation 
	JOINT Hips
	{
		OFFSET -17.1583 93.1646 452.98
		CHANNELS 6 Xposition Yposition Zposition Zrotation Xrotation Yrotation 
		JOINT Spine
		{
			OFFSET 15.7357 0.0 0.0
			CHANNELS 6 Xposition Yposition Zposition Zrotation Xrotation Yrotation 
			JOINT Chest
			{
				OFFSET 8.98455 -0.406207 0.0
				CHANNELS 6 Xposition Yposition Zposition Zrotation Xrotation Yrotation 
				JOINT Neck
				{
					OFFSET 16.3773 0.0 0.0
					CHANNELS 6 Xposition Yposition Zposition Zrotation Xrotation Yrotation 
					JOINT Head
					{
						OFFSET 6.45672 0.0 0.0
						CHANNELS 6 Xposition Yposition Zposition Zrotation Xrotation Yrotation 
						End Site
						{
							OFFSET 0.0 0.0 0.0
						}
					}
				}
				JOINT Shoulder_L
				{
					OFFSET 12.9942 -0.242716 4.98039
					CHANNELS 6 Xposition Yposition Zposition Zrotation Xrotation Yrotation 
					JOINT UpperArm_L
					{
						OFFSET 5.34809 0.0 0.0
						CHANNELS 6 Xposition Yposition Zposition Zrotation Xrotation Yrotation 
						JOINT LowerArm_L
						{
							OFFSET 24.3286 1.87007e-05 0.0
							CHANNELS 6 Xposition Yposition Zposition Zrotation Xrotation Yrotation 
							JOINT Hand_L
							{
								OFFSET 22.2916 0.0 0.0
								CHANNELS 6 Xposition Yposition Zposition Zrotation Xrotation Yrotation 
								End Site
								{
									OFFSET 0.0 0.0 0.0
								}
							}
						}
					}
				}
				JOINT Shoulder_R
				{
					OFFSET 12.9945 -0.242716 -4.98039
					CHANNELS 6 Xposition Yposition Zposition Zrotation Xrotation Yrotation 
					JOINT UpperArm_R
					{
						OFFSET -5.34813 0.0 0.0
						CHANNELS 6 Xposition Yposition Zposition Zrotation Xrotation Yrotation 
						JOINT LowerArm_R
						{
							OFFSET -24.3289 0.000322201 0.0
							CHANNELS 6 Xposition Yposition Zposition Zrotation Xrotation Yrotation 
							JOINT Hand_R
							{
								OFFSET -22.2915 -0.000108084 0.0
								CHANNELS 6 Xposition Yposition Zposition Zrotation Xrotation Yrotation 
								End Site
								{
									OFFSET 0.0 0.0 0.0
								}
							}
						}
					}
				}
			}
		}
		JOINT UpperLeg_L
		{
			OFFSET -2.19248 -6.46944 0.0
			CHANNELS 6 Xposition Yposition Zposition Zrotation Xrotation Yrotation 
			JOINT LowerLeg_L
			{
				OFFSET 39.0811 0.0 -1.23785e-05
				CHANNELS 6 Xposition Yposition Zposition Zrotation Xrotation Yrotation 
				JOINT Foot_L
				{
					OFFSET 40.9854 0.0 -1.26872e-05
					CHANNELS 6 Xposition Yposition Zposition Zrotation Xrotation Yrotation 
					JOINT Toes_L
					{
						OFFSET 11.7543 0.0 0.0
						CHANNELS 6 Xposition Yposition Zposition Zrotation Xrotation Yrotation 
						End Site
						{
							OFFSET 0.0 0.0 0.0
						}
					}
				}
			}
		}
		JOINT UpperLeg_R
		{
			OFFSET -2.19251 6.46944 0.0
			CHANNELS 6 Xposition Yposition Zposition Zrotation Xrotation Yrotation 
			JOINT LowerLeg_R
			{
				OFFSET -39.0811 -0.00228153 -0.0401928
				CHANNELS 6 Xposition Yposition Zposition Zrotation Xrotation Yrotation 
				JOINT Foot_R
				{
					OFFSET -40.9854 0.0 0.0
					CHANNELS 6 Xposition Yposition Zposition Zrotation Xrotation Yrotation 
					JOINT Toes_R
					{
						OFFSET -11.7543 0.0 0.0
						CHANNELS 6 Xposition Yposition Zposition Zrotation Xrotation Yrotation 
						End Site
						{
							OFFSET 0.0 0.0 0.0
						}
					}
				}
			}
		}
	}
}
MOTION
Frames:	6
Frame Time:	0.0333333
0.000000 0.000000 0.000000 0.000000 0.000000 -0.000000 -2.952850 91.775700 -0.036710 85.170500 1.492940 8.024590 15.735700 0.000005 -0.000001 77.337000 85.183300 -74.202000 8.984550 -0.406207 -0.000000 1.704400 -2.276240 6.298860 16.377300 -0.000001 -0.000001 15.026900 1.369790 8.321240 6.456720 -0.000001 -0.000000 -8.427910 -2.195360 17.764300 12.994200 -0.242716 4.980390 -92.491700 6.664260 -69.445400 5.348090 -0.000007 -0.000001 -80.165900 -15.683600 -12.611400 24.328600 0.000019 0.000005 32.763100 -34.754700 -131.535000 22.291600 -0.000001 0.000005 39.957600 4.990850 7.513030 12.994500 -0.242716 -4.980390 86.668100 7.707880 -66.536100 -5.348130 -0.000001 -0.000004 -73.745900 -10.935700 -13.146900 -24.328900 0.000322 -0.000009 11.958900 -13.671200 -138.134000 -22.291500 -0.000108 -0.000004 51.791500 5.649810 -14.998100 -2.192480 -6.469440 -0.000000 -175.821000 5.262550 0.114846 39.081100 -0.000007 -0.000012 0.415839 -0.766447 28.483300 40.985400 -0.000006 -0.000013 0.015560 -0.913047 -76.096100 11.754300 -0.000000 0.000003 -0.000676 0.178320 -9.343610 -2.192510 6.469440 -0.000001 -172.561000 11.287300 -172.819000 -39.081100 -0.002282 -0.040193 0.140695 -0.453535 16.850900 -40.985400 0.000008 0.000006 5.381160 3.847740 -72.321800 -11.754300 -0.000006 -0.000006 -0.011501 0.282196 -5.105320
0.000000 0.000000 0.000000 0.000000 0.000000 -0.000000 -2.945470 91.780900 -0.022056 85.188900 1.511030 8.116840 15.735700 0.000005 -0.000001 77.457000 85.135700 -74.380600 8.984550 -0.406207 -0.000000 1.800150 -2.271490 6.183650 16.377300 -0.000001 -0.000001 15.174300 1.319080 8.260440 6.456720 -0.000001 -0.000000 -8.495930 -2.325220 17.705800 12.994200 -0.242716 4.980390 -92.517200 6.723690 -69.420200 5.348090 -0.000007 -0.000001 -80.177100 -16.036000 -12.578900 24.328600 0.000019 0.000005 32.656400 -34.515000 -131.479000 22.291600 -0.000001 0.000005 40.014800 4.989690 7.537730 12.994500 -0.242716 -4.980390 86.646100 7.753340 -66.520300 -5.348130 -0.000001 -0.000004 -73.672100 -10.623900 -13.085600 -24.328900 0.000322 -0.000009 11.835100 -13.466600 -138.017000 -22.291500 -0.000108 -0.000004 51.456300 5.647100 -14.744100 -2.192480 -6.469440 -0.000000 -175.868000 5.345080 0.239447 39.081100 -0.000007 -0.000012 0.415343 -0.767178 28.431800 40.985400 -0.000006 -0.000013 -0.000399 -0.982621 -76.067100 11.754300 -0.000000 0.000003 -0.000861 0.181042 -9.233010 -2.192510 6.469440 -0.000001 -172.592000 11.182200 -172.730000 -39.081100 -0.002282 -0.040193 0.137353 -0.442212 16.861300 -40.985400 0.000008 0.000006 5.247620 3.787370 -72.274500 -11.754300 -0.000006 -0.000006 -0.011552 0.282556 -5.090560
0.000000 0.000000 0.000000 0.000000 0.000000 -0.000000 -2.932690 91.788700 -0.024490 85.214900 1.560440 8.092240 15.735700 0.000005 -0.000001 77.611500 85.124700 -74.587900 8.984550 -0.406207 -0.000000 1.825430 -2.247210 6.078080 16.377300 -0.000001 -0.000001 15.250900 1.282760 8.208140 6.456720 -0.000001 -0.000000 -8.573050 -2.454370 17.580200 12.994200 -0.242716 4.980390 -92.545800 6.778130 -69.358100 5.348090 -0.000007 -0.000001 -80.163800 -16.277900 -12.543300 24.328600 0.000019 0.000005 32.613600 -34.354100 -131.410000 22.291600 -0.000001 0.000005 39.982600 4.988920 7.554180 12.994500 -0.242716 -4.980390 86.640000 7.755600 -66.488200 -5.348130 -0.000001 -0.000004 -73.629400 -10.476700 -12.981300 -24.328900 0.000322 -0.000009 11.930700 -13.491700 -137.833000 -22.291500 -0.000108 -0.000004 50.973400 5.644280 -14.492600 -2.192480 -6.469440 -0.000000 -175.898000 5.340700 0.230390 39.081100 -0.000007 -0.000012 0.411741 -0.762326 28.375100 40.985400 -0.000006 -0.000013 0.025289 -0.942603 -76.009400 11.754300 -0.000000 0.000003 -0.000839 0.180718 -9.246170 -2.192510 6.469440 -0.000001 -172.593000 11.041100 -172.764000 -39.081100 -0.002282 -0.040193 0.136631 -0.439843 16.860700 -40.985400 0.000008 0.000006 5.160040 3.653550 -72.262300 -11.754300 -0.000006 -0.000006 -0.011573 0.282707 -5.084390
0.000000 0.000000 0.000000 0.000000 0.000000 -0.000000 -2.913470 91.793000 -0.026287 85.240300 1.618050 8.114050 15.735700 0.000005 -0.000001 77.797900 85.111000 -74.825000 8.984550 -0.406207 -0.000000 1.857000 -2.218570 5.976740 16.377300 -0.000001 -0.000001 15.311100 1.238190 8.130720 6.456720 -0.000001 -0.000000 -8.541180 -2.559560 17.484800 12.994200 -0.242716 4.980390 -92.563800 6.819590 -69.339600 5.348090 -0.000007 -0.000001 -80.177600 -16.471600 -12.435100 24.328600 0.000019 0.000005 32.581700 -34.201800 -131.334000 22.291600 -0.000001 0.000005 39.868600 4.985400 7.627720 12.994500 -0.242716 -4.980390 86.636100 7.774400 -66.514400 -5.348130 -0.000001 -0.000004 -73.536400 -10.312800 -12.851400 -24.328900 0.000322 -0.000009 11.953700 -13.431900 -137.653000 -22.291500 -0.000108 -0.000004 50.953500 5.645540 -14.604100 -2.192480 -6.469440 -0.000000 -175.936000 5.387020 0.268019 39.081100 -0.000007 -0.000012 0.407343 -0.755525 28.332500 40.985400 -0.000006 -0.000013 0.043513 -0.918582 -75.973800 11.754300 -0.000000 0.000003 -0.000758 0.179539 -9.294050 -2.192510 6.469440 -0.000001 -172.614000 10.984100 -172.757000 -39.081100 -0.002282 -0.040193 0.136111 -0.437721 16.875500 -40.985400 0.000008 0.000006 5.082570 3.544580 -72.254400 -11.754300 -0.000006 -0.000006 -0.011243 0.280367 -5.180180
0.000000 0.000000 0.000000 0.000000 0.000000 -0.000000 -2.902390 91.791400 -0.037533 85.261200 1.684670 8.061510 15.735700 0.000005 -0.000001 78.082800 85.120400 -75.163600 8.984550 -0.406207 -0.000000 1.845890 -2.164660 5.868480 16.377300 -0.000001 -0.000001 15.326300 1.163380 8.108530 6.456720 -0.000001 -0.000000 -8.552240 -2.631550 17.337600 12.994200 -0.242716 4.980390 -92.583800 6.848830 -69.272500 5.348090 -0.000007 -0.000001 -80.125800 -16.458500 -12.345300 24.328600 0.000019 0.000005 32.617000 -34.053900 -131.187000 22.291600 -0.000001 0.000005 39.985100 4.979370 7.754720 12.994500 -0.242716 -4.980390 86.627000 7.796010 -66.515500 -5.348130 -0.000001 -0.000004 -73.432100 -10.087100 -12.713100 -24.328900 0.000322 -0.000009 11.901400 -13.329300 -137.567000 -22.291500 -0.000108 -0.000004 50.688000 5.643800 -14.450200 -2.192480 -6.469440 -0.000000 -175.955000 5.404490 0.201132 39.081100 -0.000007 -0.000012 0.406652 -0.754263 28.331800 40.985400 -0.000006 -0.000013 0.065357 -0.865773 -75.933800 11.754300 -0.000000 0.000003 -0.000775 0.179788 -9.283960 -2.192510 6.469440 -0.000001 -172.576000 10.882400 -172.825000 -39.081100 -0.002282 -0.040193 0.139194 -0.447792 16.878800 -40.985400 0.000008 0.000006 5.153680 3.314010 -72.310400 -11.754300 -0.000006 -0.000006 -0.011725 0.283775 -5.040650
0.000000 0.000000 0.000000 0.000000 0.000000 -0.000000 -2.895540 91.792800 -0.024613 85.280300 1.779910 8.089900 15.735700 0.000005 -0.000001 78.211600 85.106700 -75.338600 8.984550 -0.406207 -0.000000 1.875780 -2.145680 5.776260 16.377300 -0.000001 -0.000001 15.363800 1.149500 8.035160 6.456720 -0.000001 -0.000000 -8.583890 -2.746840 17.237900 12.994200 -0.242716 4.980390 -92.613700 6.914790 -69.234900 5.348090 -0.000007 -0.000001 -80.097300 -16.575100 -12.257600 24.328600 0.000019 0.000005 32.549400 -33.886900 -131.138000 22.291600 -0.000001 0.000005 39.707200 4.981090 7.718610 12.994500 -0.242716 -4.980390 86.628700 7.794580 -66.522100 -5.348130 -0.000001 -0.000004 -73.360000 -9.823770 -12.646000 -24.328900 0.000322 -0.000009 11.985100 -13.314400 -137.329000 -22.291500 -0.000108 -0.000004 50.667400 5.642870 -14.369300 -2.192480 -6.469440 -0.000000 -175.967000 5.390690 0.219720 39.081100 -0.000007 -0.000012 0.406136 -0.754028 28.308900 40.985400 -0.000006 -0.000013 0.095130 -0.772053 -75.855400 11.754300 -0.000000 0.000003 -0.000704 0.178733 -9.326800 -2.192510 6.469440 -0.000001 -172.621000 10.945300 -172.811000 -39.081100 -0.002282 -0.040193 0.138217 -0.443752 16.908200 -40.985400 0.000008 0.000006 5.046360 3.319010 -72.295000 -11.754300 -0.000006 -0.000006 -0.011596 0.282865 -5.077910
